<svg xmlns="http://www.w3.org/2000/svg" width="200" height="200" viewBox="0 0 200 200"><path fill="#F37345" d="M99.751 0c-55.093 0-99.751 44.661-99.751 99.751 0 55.089 44.658 99.751 99.751 99.751 55.094 0 99.751-44.657 99.751-99.751-.003-55.09-44.657-99.751-99.751-99.751m79.027 66.889h-158.06c4.336-10.406 10.656-19.781 18.504-27.636m87.596-20.685c1.813.603 3.597 1.257 5.352 1.979m31.21 67.201c0 5.572-4.513 10.09-10.088 10.09h-23.322c-5.574 0-10.089-4.515-10.089-10.09 0-5.577 4.515-10.088 10.089-10.088h23.322c5.575 0 10.088 4.514 10.088 10.088m-84.127 0c0 5.774-4.683 10.457-10.453 10.457h-24.17c-5.777 0-10.456-4.683-10.456-10.457 0-5.776 4.679-10.455 10.456-10.455h24.17c5.77.003 10.453 4.679 10.453 10.455m20.498 97.581c-47.266 0-85.578-38.317-85.578-85.581 0-1.242.044-2.468.094-3.691 10.333 7.303 26.029 20.971 43.064 23.956 16.477 2.894 36.755-21.829 38.926-24.251l.185-.215.003-.22v.22c1.954-2.114 3.891-1.671 5.455 0 .334.361 21.686 27.526 39.113 24.466 17.427-3.055 33.471-17.311 43.786-24.469l.411-.264c.073 1.481.114 2.968.114 4.468.003 47.264-38.306 85.581-85.573 85.581"/></svg>